<?xml version="1.0" encoding="UTF-8"?>
<svg width="100px" height="133px" viewBox="0 0 100 133" version="1.1" xmlns="http://www.w3.org/2000/svg" xmlns:xlink="http://www.w3.org/1999/xlink">
    <title>logo-KKT</title>
    <g id="Page-1" stroke="none" stroke-width="1" fill="none" fill-rule="evenodd">
        <g id="logo-KKT" transform="translate(0.951, 0.7677)">
            <path d="M0,0 L98.098,0 L98.098,131.4646 L0,131.4646 L0,0 Z M8.008,90.09 L18.018,90.09 L18.018,54.054 L44.044,54.054 L44.044,90.09 L90.09,90.09 L90.09,8.008 L8.008,8.008 L8.008,90.09 Z M80.08,18.018 L18.018,18.018 L18.018,18.018 L18.018,44.044 L18.018,44.044 L80.08,44.044 L80.08,44.044 L80.08,18.018 Z M54.054,80.08 L54.054,54.054 L80.08,54.054 L80.08,80.08 L54.054,80.08 Z" id="Shape" fill="#0098DB"></path>
            <path d="M8.778,100.4601 L13.9951,100.4601 L13.9951,101.5088 L9.797,101.5088 L9.797,104.1026 L13.4882,104.1026 L13.4882,105.1215 L9.797,105.1215 L9.797,109.0083 L8.778,109.0083 L8.778,100.4601 Z M18.3732,105.5048 L17.2319,101.7292 L16.0172,105.5048 L18.3732,105.5048 Z M16.6989,100.4601 L17.8506,100.4601 L20.5807,109.0083 L19.4638,109.0083 L18.7018,106.4482 L15.7253,106.4482 L14.9127,109.0083 L13.8675,109.0083 L16.6989,100.4601 L16.6989,100.4601 Z M24.6774,100.2278 C25.6282,100.2278 26.3675,100.5138 26.8936,101.0838 C27.4197,101.6538 27.7116,102.3012 27.7692,103.0262 L26.7765,103.0262 C26.6629,102.476 26.4392,102.0391 26.1019,101.7173 C25.7663,101.3956 25.2944,101.2347 24.6862,101.2347 C23.9468,101.2347 23.3474,101.5306 22.8929,102.1225 C22.4368,102.7143 22.2079,103.62 22.2079,104.8415 C22.2079,105.8425 22.414,106.6548 22.8248,107.2764 C23.2373,107.9001 23.8507,108.2119 24.6669,108.2119 C25.4168,108.2119 25.9883,107.8842 26.3815,107.2288 C26.5895,106.8832 26.7451,106.4284 26.8482,105.8663 L27.8409,105.8663 C27.7518,106.766 27.4581,107.5207 26.96,108.1304 C26.3623,108.8633 25.5565,109.2288 24.5429,109.2288 C23.669,109.2288 22.9349,108.9289 22.3424,108.3271 C21.5594,107.5326 21.1696,106.3052 21.1696,104.6448 C21.1696,103.3837 21.4633,102.3489 22.0505,101.5426 C22.685,100.6667 23.5606,100.2278 24.6774,100.2278 L24.6774,100.2278 Z M30.1864,100.4601 L30.1864,105.7432 C30.1864,106.3648 30.2878,106.8812 30.494,107.2923 C30.7964,107.912 31.3085,108.2218 32.0303,108.2218 C32.8937,108.2218 33.4809,107.8881 33.7903,107.2168 C33.9581,106.8514 34.042,106.3608 34.042,105.7432 L34.042,100.4601 L35.0767,100.4601 L35.0767,105.2605 C35.0767,106.3132 34.9509,107.1215 34.7026,107.6875 C34.2448,108.7183 33.3813,109.2347 32.1107,109.2347 C30.8418,109.2347 29.9802,108.7183 29.5258,107.6875 C29.2758,107.1215 29.1518,106.3132 29.1518,105.2605 L29.1518,100.4601 L30.1864,100.4601 L30.1864,100.4601 Z M36.6531,100.4601 L37.6721,100.4601 L37.6721,107.9894 L41.4822,107.9894 L41.4822,109.0083 L36.6531,109.0083 L36.6531,100.4601 Z M47.187,100.4601 L47.187,101.479 L44.6528,101.479 L44.6528,109.0083 L43.6181,109.0083 L43.6181,101.479 L41.0839,101.479 L41.0839,100.4601 L47.187,100.4601 Z M47.5349,100.4601 L48.7233,100.4601 L50.8836,104.5694 L53.0439,100.4601 L54.2376,100.4601 L51.3957,105.5644 L51.3957,109.0083 L50.3767,109.0083 L50.3767,105.5644 L47.5349,100.4601 L47.5349,100.4601 Z M61.087,100.2278 C62.4153,100.2278 63.3993,100.7124 64.0373,101.6836 C64.5353,102.4383 64.7853,103.4075 64.7853,104.5853 C64.7853,105.8623 64.5004,106.9229 63.9288,107.769 C63.2612,108.762 62.3069,109.2585 61.0678,109.2585 C59.9108,109.2585 59.0001,108.8236 58.3378,107.9557 C57.747,107.1175 57.4516,106.0589 57.4516,104.7779 C57.4516,103.622 57.705,102.6329 58.2102,101.8107 C58.8586,100.7561 59.8181,100.2278 61.087,100.2278 Z M61.1901,108.2218 C62.0885,108.2218 62.7369,107.8564 63.1389,107.1255 C63.5391,106.3946 63.7401,105.5545 63.7401,104.6031 C63.7401,103.5982 63.5094,102.7898 63.0463,102.1781 C62.5831,101.5644 61.9522,101.2585 61.1499,101.2585 C60.3704,101.2585 59.736,101.5604 59.2449,102.1682 C58.7537,102.7759 58.5073,103.6697 58.5073,104.8534 C58.5073,105.8007 58.717,106.5992 59.14,107.2486 C59.5612,107.8981 60.2445,108.2218 61.1901,108.2218 L61.1901,108.2218 Z M66.0961,100.4601 L71.3132,100.4601 L71.3132,101.5088 L67.1151,101.5088 L67.1151,104.1026 L70.8063,104.1026 L70.8063,105.1215 L67.1151,105.1215 L67.1151,109.0083 L66.0961,109.0083 L66.0961,100.4601 Z M11.8884,119.7567 L10.7471,115.9811 L9.5325,119.7567 L11.8884,119.7567 Z M10.2141,114.712 L11.3659,114.712 L14.0959,123.2602 L12.9791,123.2602 L12.217,120.7001 L9.2406,120.7001 L8.4279,123.2602 L7.3827,123.2602 L10.2141,114.712 L10.2141,114.712 Z M18.5195,118.6286 C18.9966,118.6286 19.3759,118.5194 19.6538,118.3029 C19.9317,118.0864 20.0715,117.6932 20.0715,117.1271 C20.0715,116.5174 19.8757,116.1023 19.4877,115.8818 C19.2798,115.7666 19.0001,115.7071 18.6523,115.7071 L16.1635,115.7071 L16.1635,118.6286 L18.5195,118.6286 L18.5195,118.6286 Z M15.1446,114.712 L18.6279,114.712 C19.2011,114.712 19.6731,114.8074 20.0453,114.998 C20.7514,115.3615 21.1062,116.0348 21.1062,117.0159 C21.1062,117.5283 21.0118,117.9474 20.8266,118.2731 C20.6396,118.5988 20.3791,118.861 20.0453,119.0596 C20.3389,119.1947 20.5591,119.3734 20.7077,119.5939 C20.8562,119.8163 20.9402,120.1738 20.9576,120.6703 L20.9926,121.8163 C21.0031,122.142 21.0275,122.3863 21.0642,122.5452 C21.1254,122.8153 21.2355,122.9901 21.3928,123.0675 L21.3928,123.2602 L20.1431,123.2602 C20.1082,123.1867 20.082,123.0914 20.061,122.9742 C20.04,122.859 20.0226,122.6346 20.0104,122.3009 L19.9474,120.8749 C19.9247,120.3168 19.7412,119.9414 19.4003,119.7508 C19.2064,119.6475 18.9005,119.5939 18.4845,119.5939 L16.1635,119.5939 L16.1635,123.2602 L15.1446,123.2602 L15.1446,114.712 L15.1446,114.712 Z M25.7657,114.4797 C26.7166,114.4797 27.4559,114.7657 27.9819,115.3357 C28.508,115.9057 28.7999,116.5531 28.8575,117.2781 L27.8648,117.2781 C27.7512,116.7279 27.5275,116.291 27.1902,115.9692 C26.8546,115.6475 26.3827,115.4866 25.7745,115.4866 C25.0352,115.4866 24.4357,115.7825 23.9813,116.3744 C23.5252,116.9662 23.2962,117.8719 23.2962,119.0934 C23.2962,120.0944 23.5024,120.9067 23.9132,121.5283 C24.3256,122.152 24.9391,122.4638 25.7553,122.4638 C26.5051,122.4638 27.0766,122.1361 27.4699,121.4807 C27.6778,121.1351 27.8334,120.6803 27.9365,120.1182 L28.9292,120.1182 C28.8401,121.0179 28.5464,121.7726 28.0484,122.3823 C27.4506,123.1152 26.6449,123.4807 25.6312,123.4807 C24.7573,123.4807 24.0232,123.1808 23.4307,122.579 C22.6477,121.7845 22.258,120.5571 22.258,118.8967 C22.258,117.6356 22.5516,116.6008 23.1388,115.7945 C23.7733,114.9186 24.6489,114.4797 25.7657,114.4797 L25.7657,114.4797 Z M30.1946,114.712 L31.2241,114.712 L31.2241,118.2453 L35.1355,118.2453 L35.1355,114.712 L36.165,114.712 L36.165,123.2602 L35.1355,123.2602 L35.1355,119.2622 L31.2241,119.2622 L31.2241,123.2602 L30.1946,123.2602 L30.1946,114.712 Z M37.9722,114.712 L39.0016,114.712 L39.0016,123.2602 L37.9722,123.2602 L37.9722,114.712 Z M46.129,114.712 L46.129,115.7309 L43.5948,115.7309 L43.5948,123.2602 L42.5601,123.2602 L42.5601,115.7309 L40.0259,115.7309 L40.0259,114.712 L46.129,114.712 Z M47.1585,114.712 L52.6413,114.712 L52.6413,115.7607 L48.1513,115.7607 L48.1513,118.3545 L52.3039,118.3545 L52.3039,119.3436 L48.1513,119.3436 L48.1513,122.2413 L52.7182,122.2413 L52.7182,123.2602 L47.1585,123.2602 L47.1585,114.712 L47.1585,114.712 Z M57.2256,114.4797 C58.1765,114.4797 58.9158,114.7657 59.4418,115.3357 C59.9679,115.9057 60.2598,116.5531 60.3174,117.2781 L59.3247,117.2781 C59.2111,116.7279 58.9874,116.291 58.6501,115.9692 C58.3146,115.6475 57.8426,115.4866 57.2344,115.4866 C56.4951,115.4866 55.8956,115.7825 55.4412,116.3744 C54.9851,116.9662 54.7561,117.8719 54.7561,119.0934 C54.7561,120.0944 54.9623,120.9067 55.3731,121.5283 C55.7855,122.152 56.399,122.4638 57.2152,122.4638 C57.965,122.4638 58.5365,122.1361 58.9298,121.4807 C59.1377,121.1351 59.2933,120.6803 59.3964,120.1182 L60.3892,120.1182 C60.3,121.0179 60.0064,121.7726 59.5083,122.3823 C58.9105,123.1152 58.1048,123.4807 57.0911,123.4807 C56.2173,123.4807 55.4832,123.1808 54.8907,122.579 C54.1076,121.7845 53.7179,120.5571 53.7179,118.8967 C53.7179,117.6356 54.0115,116.6008 54.5988,115.7945 C55.2332,114.9186 56.1088,114.4797 57.2256,114.4797 L57.2256,114.4797 Z M67.1023,114.712 L67.1023,115.7309 L64.5681,115.7309 L64.5681,123.2602 L63.5334,123.2602 L63.5334,115.7309 L60.9992,115.7309 L60.9992,114.712 L67.1023,114.712 Z M69.1402,114.712 L69.1402,119.9951 C69.1402,120.6167 69.2416,121.1331 69.4479,121.5442 C69.7502,122.1639 70.2623,122.4737 70.9842,122.4737 C71.8475,122.4737 72.4348,122.14 72.7442,121.4687 C72.912,121.1033 72.9959,120.6127 72.9959,119.9951 L72.9959,114.712 L74.0306,114.712 L74.0306,119.5124 C74.0306,120.5651 73.9047,121.3734 73.6565,121.9394 C73.1986,122.9702 72.3352,123.4866 71.0645,123.4866 C69.7957,123.4866 68.934,122.9702 68.4796,121.9394 C68.2297,121.3734 68.1056,120.5651 68.1056,119.5124 L68.1056,114.712 L69.1402,114.712 L69.1402,114.712 Z M79.1043,118.6286 C79.5814,118.6286 79.9607,118.5194 80.2386,118.3029 C80.5165,118.0864 80.6563,117.6932 80.6563,117.1271 C80.6563,116.5174 80.4605,116.1023 80.0726,115.8818 C79.8646,115.7666 79.5849,115.7071 79.2372,115.7071 L76.7484,115.7071 L76.7484,118.6286 L79.1043,118.6286 Z M75.7294,114.712 L79.2127,114.712 C79.7859,114.712 80.2579,114.8074 80.6301,114.998 C81.3362,115.3615 81.6911,116.0348 81.6911,117.0159 C81.6911,117.5283 81.5966,117.9474 81.4114,118.2731 C81.2244,118.5988 80.9639,118.861 80.6301,119.0596 C80.9238,119.1947 81.144,119.3734 81.2925,119.5939 C81.441,119.8163 81.525,120.1738 81.5424,120.6703 L81.5774,121.8163 C81.5879,122.142 81.6124,122.3863 81.6491,122.5452 C81.7102,122.8153 81.8203,122.9901 81.9777,123.0675 L81.9777,123.2602 L80.728,123.2602 C80.693,123.1867 80.6668,123.0914 80.6459,122.9742 C80.6248,122.859 80.6074,122.6346 80.5952,122.3009 L80.5323,120.8749 C80.5096,120.3168 80.326,119.9414 79.9852,119.7508 C79.7912,119.6475 79.4853,119.5939 79.0694,119.5939 L76.7484,119.5939 L76.7484,123.2602 L75.7294,123.2602 L75.7294,114.712 L75.7294,114.712 Z M83.278,114.712 L88.7608,114.712 L88.7608,115.7607 L84.2708,115.7607 L84.2708,118.3545 L88.4234,118.3545 L88.4234,119.3436 L84.2708,119.3436 L84.2708,122.2413 L88.8377,122.2413 L88.8377,123.2602 L83.278,123.2602 L83.278,114.712 L83.278,114.712 Z" id="Shape" fill="#FFFFFF" fill-rule="nonzero"></path>
            <path d="M8.008,90.09 L18.018,90.09 L18.018,54.054 L44.044,54.054 L44.044,90.09 L90.09,90.09 L90.09,8.008 L8.008,8.008 L8.008,90.09 Z M80.08,18.018 L18.018,18.018 L18.018,18.018 L18.018,44.044 L18.018,44.044 L80.08,44.044 L80.08,44.044 L80.08,18.018 Z M54.054,80.08 L54.054,54.054 L80.08,54.054 L80.08,80.08 L54.054,80.08 Z" id="Shape" fill="#FFFFFF"></path>
        </g>
    </g>
</svg>