<?xml version="1.0" encoding="UTF-8"?>
<!DOCTYPE svg PUBLIC "-//W3C//DTD SVG 1.1//EN" "http://www.w3.org/Graphics/SVG/1.1/DTD/svg11.dtd">
<!-- Creator: CorelDRAW -->
<svg xmlns="http://www.w3.org/2000/svg" xml:space="preserve" width="210mm" height="297mm" version="1.1" shape-rendering="geometricPrecision" text-rendering="geometricPrecision" image-rendering="optimizeQuality" fill-rule="evenodd" clip-rule="evenodd"
viewBox="0 0 21000 29700"
 xmlns:xlink="http://www.w3.org/1999/xlink"
 xmlns:xodm="http://www.corel.com/coreldraw/odm/2003">
 <g id="BH">
  <metadata id="CorelCorpID_0Corel-Layer"/>
  <g id="_105553230580096">
   <polygon fill="#0093DD" points="12492.87,20350.53 13992.87,20350.53 13992.87,18850.53 6992.87,18850.53 6992.87,20350.53 8492.87,20350.53 8492.87,21850.53 12492.87,21850.53 "/>
   <path fill="#0093DD" d="M12492.87 15100.53c0,-198.91 -79.03,-389.69 -219.67,-530.33 -140.64,-140.64 -331.42,-219.67 -530.33,-219.67 414.21,0 750,-335.78 750,-750l0 -2750 -1500 0 0 2250c0.08,132.69 -52.55,259.35 -146.32,353.24 -93.76,93.88 -220.99,146.68 -353.68,146.76l-500 0 0 -2750 -1500 0 0 7000 1500 0 0 -2750 500 0c132.69,-0.08 259.35,52.55 353.24,146.32 93.88,93.76 146.68,220.99 146.76,353.68l0 2250 1500 0 0 -2750z"/>
   <path fill="#0093DD" d="M14492.87 16620.23c2083,-655.08 3499.99,-2586.1 3500,-4769.68l-4000 -0.02 0 -4000 -1000 0 0 1000 -5000 0 0 -1000 -1000 0 0 7872.98c-1408.95,-363.79 -2509.19,-1464.03 -2872.98,-2872.98l2372.98 0 0 -1000 -3500 0c0,1326.08 526.78,2597.85 1464.47,3535.53 937.68,937.69 2209.45,1464.47 3535.53,1464.47l0 -7000 5000 0 0 7000c335.88,0 670.91,-33.84 1000,-101.02l0 -3898.98 2872.98 0c-317.02,1227.81 -1197.44,2232.57 -2372.98,2708.1l0 1061.6z"/>
  </g>
 </g>
</svg>
