<?xml version="1.0" encoding="UTF-8"?>
<svg width="151px" height="141px" viewBox="0 0 151 141" version="1.1" xmlns="http://www.w3.org/2000/svg" xmlns:xlink="http://www.w3.org/1999/xlink">
    <title>Untitled</title>
    <g id="Page-1" stroke="none" stroke-width="1" fill="none" fill-rule="evenodd">
        <g id="logo-HAU" transform="translate(0.9287, 0.5053)" fill="#0093DD">
            <polygon id="Path" points="95 125 110 125 110 110 40 110 40 125 55 125 55 140 95 140"></polygon>
            <path d="M95,72.5 C95,70.5109 94.2097,68.6031 92.8033,67.1967 C91.3969,65.7903 89.4891,65 87.5,65 C91.6421,65 95,61.6422 95,57.5 L95,30 L80,30 L80,52.5 C80.0008,53.8269 79.4745,55.0935 78.5368,56.0324 C77.5992,56.9712 76.3269,57.4992 75,57.5 L70,57.5 L70,30 L55,30 L55,100 L70,100 L70,72.5 L75,72.5 C76.3269,72.4992 77.5935,73.0255 78.5324,73.9632 C79.4712,74.9008 79.9992,76.1731 80,77.5 L80,100 L95,100 L95,72.5 L95,72.5 Z" id="Path"></path>
            <path d="M115,87.697 C135.83,81.1462 150,61.836 150,40.0002 L110,40 L110,0 L100,0 L100,10 L50,10 L50,0 L40,0 L40,78.7298 C25.9105,75.0919 14.9081,64.0895 11.2702,50 L35,50 L35,40 L0,40 C0,53.2608 5.2678,65.9785 14.6447,75.3553 C24.0215,84.7322 36.7392,90 50,90 L50,20 L100,20 L100,90 C103.3588,90 106.7091,89.6616 110,88.9898 L110,50 L138.7298,50 C135.5596,62.2781 126.7554,72.3257 115,77.081 L115,87.697 L115,87.697 Z" id="Path"></path>
        </g>
    </g>
</svg>